
<svg viewBox="0 0 350 50" xmlns="http://www.w3.org/2000/svg" role="img" aria-labelledby="logo-title-h">
    <title id="logo-title-h">Marian Global Services Logo - Horizontal</title>
    <style>
        .sym-primary { fill: #0F1D3C; }
        .sym-secondary { fill: #FFC300; }
        .text-main { font-family: 'Montserrat', sans-serif; font-weight: 800; font-size: 30px; letter-spacing: 0.5px; }
        .text-global { fill: #FFC300; }
    </style>
    <g transform="translate(10, 5)">
        <circle class="sym-primary" cx="20" cy="20" r="18" fill="none" stroke="#0F1D3C" stroke-width="2.5"/>
        <path class="sym-secondary" d="M10 20c0-5.5 4.5-10 10-10s10 4.5 10 10-4.5 10-10 10c-5.5 0-10-4.5-10-10zm25.5 0c0-2.5-1.5-4.5-3.5-5.5v11c2 1 3.5-3 3.5-5.5zm-33 0c0-2.5 1.5-4.5 3.5-5.5v11c-2 1-3.5-3-3.5-5.5z"/>
    </g>
    <text x="65" y="35" class="text-main" fill="#0F1D3C">
        MARIAN <tspan class="text-global" font-weight="400">GLOBAL</tspan>
    </text>
    <text x="65" y="47" font-size="10px" font-family="'Inter', sans-serif" fill="#666">
        TECHNICAL SERVICES
    </text>
</svg>
